<svg width="100" height="100" viewBox="0 0 100 100" fill="none" xmlns="http://www.w3.org/2000/svg">
<path d="M63.75 58.75C63.75 59.413 63.4866 60.0489 63.0178 60.5178C62.5489 60.9866 61.913 61.25 61.25 61.25H38.75C38.087 61.25 37.4511 60.9866 36.9822 60.5178C36.5134 60.0489 36.25 59.413 36.25 58.75V45C36.25 44.337 36.5134 43.7011 36.9822 43.2322C37.4511 42.7634 38.087 42.5 38.75 42.5H43.75L46.25 38.75H53.75L56.25 42.5H61.25C61.913 42.5 62.5489 42.7634 63.0178 43.2322C63.4866 43.7011 63.75 44.337 63.75 45V58.75Z" stroke="#535F70" stroke-width="2.4" stroke-linecap="round" stroke-linejoin="round"/>
<path d="M50 56.25C52.7614 56.25 55 54.0114 55 51.25C55 48.4886 52.7614 46.25 50 46.25C47.2386 46.25 45 48.4886 45 51.25C45 54.0114 47.2386 56.25 50 56.25Z" stroke="#535F70" stroke-width="2.4" stroke-linecap="round" stroke-linejoin="round"/>
<rect x="1" y="1" width="98" height="98" rx="49" stroke="#535F70" stroke-opacity="0.31" stroke-width="2" stroke-dasharray="4 4"/>
</svg>
