<svg aria-hidden="true" style="position: absolute; width: 0; height: 0; overflow: hidden;" version="1.1"
	xmlns="http://www.w3.org/2000/svg" xmlns:xlink="http://www.w3.org/1999/xlink">

	<defs>
		<symbol width="20" height="20" viewBox="0 0 20 20" fill="none" xmlns="http://www.w3.org/2000/svg" id="delete">
			<path d="M2.5 5H4.16667H17.5" stroke-width="2" stroke-linecap="round" stroke-linejoin="round" />
			<path d="M15.8333 5.00033V16.667C15.8333 17.109 15.6577 17.5329 15.3451 17.8455C15.0326 18.1581 14.6087 18.3337 14.1666 18.3337H5.83329C5.39127 18.3337 4.96734 18.1581 4.65478 17.8455C4.34222 17.5329 4.16663 17.109 4.16663 16.667V5.00033M6.66663 5.00033V3.33366C6.66663 2.89163 6.84222 2.46771 7.15478 2.15515C7.46734 1.84259 7.89127 1.66699 8.33329 1.66699H11.6666C12.1087 1.66699 12.5326 1.84259 12.8451 2.15515C13.1577 2.46771 13.3333 2.89163 13.3333 3.33366V5.00033" stroke-width="2" stroke-linecap="round" stroke-linejoin="round" />
			<path d="M8.33337 9.16699V14.167" stroke-width="2" stroke-linecap="round" stroke-linejoin="round" />
			<path d="M11.6666 9.16699V14.167" stroke-width="2" stroke-linecap="round" stroke-linejoin="round" />
		</symbol>	
	</defs>
</svg>