<svg aria-hidden="true" style="position: absolute; width: 0; height: 0; overflow: hidden;" version="1.1"
	xmlns="http://www.w3.org/2000/svg" xmlns:xlink="http://www.w3.org/1999/xlink">

	<defs>
		<symbol width="20" height="20" viewBox="0 0 40 40" fill="none" xmlns="http://www.w3.org/2000/svg" id="logo">
			<!-- Generator: Sketch 52.6 (67491) - http://www.bohemiancoding.com/sketch -->
			<title>site-logo-coderdocs</title>
			<desc>Created with Sketch.</desc>
		    <g id="Page-1" stroke="none" stroke-width="1" fill="none" fill-rule="evenodd">
				<g id="site-logo-coderdocs">
					<g id="octagon-solid" fill="#28B76B">
						<path d="M28.1871345,1.0994152 C27.4853801,0.397660819 26.5341131,0 25.5438596,0 L14.3859649,0 C13.3957115,0 12.4444444,0.397660819 11.7426901,1.0994152 L1.0994152,11.7348928 C0.397660819,12.4366472 0,13.3879142 0,14.3781676 L0,25.5360624 C0,26.5263158 0.397660819,27.4775828 1.0994152,28.1793372 L11.7426901,38.8226121 C12.4444444,39.5243665 13.3957115,39.9220273 14.3859649,39.9220273 L25.5438596,39.9220273 C26.5341131,39.9220273 27.4853801,39.5243665 28.1871345,38.8226121 L38.8304094,28.1793372 C39.5321637,27.4775828 39.9298246,26.5263158 39.9298246,25.5360624 L39.9298246,14.3859649 C39.9298246,13.3957115 39.5321637,12.4444444 38.8304094,11.7426901 L28.1871345,1.0994152 Z" id="Path"></path>
					</g>
					<g id="code-regular" transform="translate(6.471735, 7.953216)" fill="#FFFFFF" fill-rule="nonzero">
						<path d="M10.9998511,23.9547848 L9.18254548,23.4257863 C8.98582684,23.3696095 8.8687324,23.1589464 8.92493773,22.9623275 L15.5196962,0.271569842 C15.5759016,0.0749509389 15.7866715,-0.0420841223 15.9833902,0.0140927071 L17.8006958,0.543091183 C17.9974144,0.599268013 18.1145089,0.809931123 18.0583036,1.00655003 L11.4635451,23.6973077 C11.4073397,23.898608 11.2012535,24.0109616 10.9998511,23.9547848 Z M7.10294834,18.2856064 L8.37693578,16.9279997 C8.52213288,16.7735135 8.50808155,16.5300805 8.35351689,16.3896385 L3.38402913,11.9844388 L8.35351689,7.57923906 C8.51276532,7.43879698 8.52213288,7.19536406 8.37693578,7.04087778 L7.10294834,5.68327107 C6.96243502,5.53346619 6.72356238,5.52410338 6.5736815,5.66454546 L0.119436322,11.7129174 C-0.0398121074,11.8627223 -0.0398121074,12.1108366 0.119436322,12.2606415 L6.5736815,18.3043321 C6.72356238,18.4447741 6.95775125,18.4354113 7.10294834,18.2856064 Z M20.4095598,18.3043321 L26.8591212,12.2606415 C27.0183696,12.1108366 27.0183696,11.8627223 26.8591212,11.7129174 L20.4095598,5.66454546 C20.2596789,5.52410338 20.0208063,5.52878479 19.8802929,5.68327107 L18.6063055,7.04087778 C18.4611084,7.19536406 18.4751597,7.43879698 18.6297244,7.57923906 L23.5992122,11.9844388 L18.6297244,16.3896385 C18.470476,16.5300805 18.4611084,16.7735135 18.6063055,16.9279997 L19.8802929,18.2856064 C20.02549,18.4354113 20.2596789,18.4447741 20.4095598,18.3043321 Z" id="Shape"></path>
					</g>
				</g>
    		</g>
		</symbol>	
		<symbol width="20" height="20" viewBox="0 0 256 250" xmlns="http://www.w3.org/2000/svg" id="github">
			<path d="M128.001 0C57.317 0 0 57.307 0 128.001c0 56.554 36.676 104.535 87.535 121.46 6.397 1.185 8.746-2.777 8.746-6.158 0-3.052-.12-13.135-.174-23.83-35.61 7.742-43.124-15.103-43.124-15.103-5.823-14.795-14.213-18.73-14.213-18.73-11.613-7.944.876-7.78.876-7.78 12.853.902 19.621 13.19 19.621 13.19 11.417 19.568 29.945 13.911 37.249 10.64 1.149-8.272 4.466-13.92 8.127-17.116-28.431-3.236-58.318-14.212-58.318-63.258 0-13.975 5-25.394 13.188-34.358-1.329-3.224-5.71-16.242 1.24-33.874 0 0 10.749-3.44 35.21 13.121 10.21-2.836 21.16-4.258 32.038-4.307 10.878.049 21.837 1.47 32.066 4.307 24.431-16.56 35.165-13.12 35.165-13.12 6.967 17.63 2.584 30.65 1.255 33.873 8.207 8.964 13.173 20.383 13.173 34.358 0 49.163-29.944 59.988-58.447 63.157 4.591 3.972 8.682 11.762 8.682 23.704 0 17.126-.148 30.91-.148 35.126 0 3.407 2.304 7.398 8.792 6.14C219.37 232.5 256 184.537 256 128.002 256 57.307 198.691 0 128.001 0Zm-80.06 182.34c-.282.636-1.283.827-2.194.39-.929-.417-1.45-1.284-1.15-1.922.276-.655 1.279-.838 2.205-.399.93.418 1.46 1.293 1.139 1.931Zm6.296 5.618c-.61.566-1.804.303-2.614-.591-.837-.892-.994-2.086-.375-2.66.63-.566 1.787-.301 2.626.591.838.903 1 2.088.363 2.66Zm4.32 7.188c-.785.545-2.067.034-2.86-1.104-.784-1.138-.784-2.503.017-3.05.795-.547 2.058-.055 2.861 1.075.782 1.157.782 2.522-.019 3.08Zm7.304 8.325c-.701.774-2.196.566-3.29-.49-1.119-1.032-1.43-2.496-.726-3.27.71-.776 2.213-.558 3.315.49 1.11 1.03 1.45 2.505.701 3.27Zm9.442 2.81c-.31 1.003-1.75 1.459-3.199 1.033-1.448-.439-2.395-1.613-2.103-2.626.301-1.01 1.747-1.484 3.207-1.028 1.446.436 2.396 1.602 2.095 2.622Zm10.744 1.193c.036 1.055-1.193 1.93-2.715 1.95-1.53.034-2.769-.82-2.786-1.86 0-1.065 1.202-1.932 2.733-1.958 1.522-.03 2.768.818 2.768 1.868Zm10.555-.405c.182 1.03-.875 2.088-2.387 2.37-1.485.271-2.861-.365-3.05-1.386-.184-1.056.893-2.114 2.376-2.387 1.514-.263 2.868.356 3.061 1.403Z"/>
		</symbol>	
		<symbol width="20" height="20" viewBox="0 0 50 50" xmlns="http://www.w3.org/2000/svg" id="instagram">
			<path  stroke="none" fill-rule="evenodd" d="M24 0C10.745 0 0 10.745 0 24s10.745 24 24 24 24-10.745 24-24S37.255 0 24 0Zm-5.277 11.277c1.366-.062 1.802-.077 5.278-.077h-.004c3.478 0 3.912.015 5.278.077 1.362.063 2.293.279 3.109.595a6.256 6.256 0 0 1 2.267 1.476 6.281 6.281 0 0 1 1.477 2.268c.315.813.53 1.744.595 3.106.061 1.366.077 1.802.077 5.278 0 3.476-.016 3.912-.077 5.277-.064 1.362-.28 2.293-.595 3.107a6.283 6.283 0 0 1-1.477 2.267 6.263 6.263 0 0 1-2.266 1.477c-.815.317-1.746.532-3.108.595-1.366.062-1.8.077-5.277.077-3.476 0-3.912-.015-5.278-.077-1.362-.063-2.293-.278-3.107-.595a6.268 6.268 0 0 1-2.267-1.477 6.271 6.271 0 0 1-1.476-2.268c-.316-.814-.532-1.744-.595-3.106-.061-1.366-.077-1.8-.077-5.277 0-3.476.016-3.913.077-5.278.061-1.362.277-2.293.595-3.107a6.284 6.284 0 0 1 1.477-2.267 6.268 6.268 0 0 1 2.268-1.476c.813-.316 1.744-.532 3.106-.595Z" clip-rule="evenodd"/>
			<path stroke="none" fill-rule="evenodd" d="M22.853 13.507h1.148c3.418 0 3.823.012 5.173.073 1.248.057 1.925.266 2.376.441.598.232 1.023.51 1.471.957.448.449.725.875.958 1.473.175.45.384 1.127.44 2.375.062 1.35.075 1.755.075 5.171 0 3.416-.013 3.822-.074 5.171-.057 1.248-.266 1.925-.441 2.376a3.958 3.958 0 0 1-.958 1.47 3.959 3.959 0 0 1-1.47.958c-.451.176-1.13.384-2.377.44-1.35.062-1.755.075-5.173.075s-3.823-.013-5.172-.074c-1.248-.058-1.925-.266-2.377-.441a3.965 3.965 0 0 1-1.472-.958 3.968 3.968 0 0 1-.958-1.471c-.175-.45-.384-1.128-.44-2.376-.062-1.35-.074-1.755-.074-5.173s.012-3.821.073-5.17c.058-1.249.266-1.926.441-2.377.232-.598.51-1.024.958-1.472a3.972 3.972 0 0 1 1.472-.958c.451-.176 1.129-.384 2.377-.441 1.18-.054 1.638-.07 4.024-.072v.003Zm7.98 2.125a1.536 1.536 0 1 0 0 3.073 1.536 1.536 0 0 0 0-3.073ZM17.429 24a6.574 6.574 0 1 1 13.147 0 6.574 6.574 0 0 1-13.147 0Z" clip-rule="evenodd"/>
			<path  stroke="none" d="M24.001 19.733a4.267 4.267 0 1 1 0 8.534 4.267 4.267 0 0 1 0-8.534Z" />
		</symbol>	
		<symbol width="20" height="20" viewBox="0 0 50 50" xmlns="http://www.w3.org/2000/svg" id="telegram">
			<path stroke="none" fill-rule="evenodd" d="M0 24c0 13.255 10.745 24 24 24s24-10.745 24-24S37.255 0 24 0 0 10.745 0 24Zm19.6 11 .408-6.118 11.129-10.043c.488-.433-.107-.645-.755-.252l-13.735 8.665-5.932-1.851c-1.281-.393-1.29-1.273.287-1.906l23.118-8.914c1.056-.48 2.075.254 1.672 1.87l-3.937 18.552c-.275 1.319-1.071 1.634-2.175 1.025l-5.997-4.431L20.8 34.4l-.027.026c-.322.314-.59.574-1.173.574Z" clip-rule="evenodd"/>
		</symbol>	
	</defs>
</svg>